<svg width="200" height="200" viewBox="0 0 200 200" xmlns="http://www.w3.org/2000/svg">
  <!-- 背景圆形 -->
  <circle cx="100" cy="100" r="95" fill="#4a6fa5"/>
  
  <!-- 简化的头像轮廓 -->
  <circle cx="100" cy="75" r="40" fill="#fff" opacity="0.9"/>
  <path d="M100,115 C70,115 50,165 100,180 C150,165 130,115 100,115 Z" fill="#fff" opacity="0.9"/>
  
  <!-- 眼睛 -->
  <circle cx="85" cy="65" r="5" fill="#333"/>
  <circle cx="115" cy="65" r="5" fill="#333"/>
  
  <!-- 嘴巴 -->
  <path d="M85,90 Q100,100 115,90" stroke="#333" stroke-width="2" fill="none"/>
  
  <!-- 装饰元素 -->
  <path d="M60,30 C70,20 130,20 140,30 C150,40 150,60 140,70 C130,80 70,80 60,70 C50,60 50,40 60,30 Z" fill="#3a5a85" opacity="0.3"/>
</svg>