<svg width="400" height="250" viewBox="0 0 400 250" xmlns="http://www.w3.org/2000/svg">
  <!-- 背景 -->
  <rect width="400" height="250" fill="#f0f2f5"/>
  
  <!-- 侧边栏 -->
  <rect x="0" y="0" width="80" height="250" fill="#2c3e50"/>
  
  <!-- 侧边栏图标 -->
  <rect x="25" y="20" width="30" height="30" fill="#4a6fa5" rx="5"/>
  <rect x="30" y="30" width="20" height="3" fill="white"/>
  <rect x="30" y="36" width="20" height="3" fill="white"/>
  <rect x="30" y="42" width="20" height="3" fill="white"/>
  
  <circle cx="40" cy="90" r="12" fill="#34495e"/>
  <path d="M35,90 L45,90 M40,85 L40,95" stroke="white" stroke-width="2"/>
  
  <circle cx="40" cy="140" r="12" fill="#34495e"/>
  <rect x="34" y="134" width="12" height="12" stroke="white" stroke-width="2" fill="none"/>
  
  <circle cx="40" cy="190" r="12" fill="#34495e"/>
  <path d="M33,190 L47,190 M40,183 L40,197" stroke="white" stroke-width="2"/>
  
  <circle cx="40" cy="240" r="12" fill="#34495e"/>
  <path d="M33,240 L47,240 M40,233 L40,247" stroke="white" stroke-width="2"/>
  
  <!-- 顶部导航 -->
  <rect x="80" y="0" width="320" height="50" fill="white" stroke="#ddd"/>
  <rect x="100" y="15" width="200" height="20" fill="#f0f2f5" rx="10"/>
  <circle cx="280" cy="25" r="5" fill="#4a6fa5"/>
  
  <!-- 内容区域 -->
  <rect x="90" y="70" width="290" height="40" fill="white" stroke="#ddd" rx="5"/>
  <rect x="100" y="80" width="100" height="20" fill="#4a6fa5" rx="3"/>
  
  <!-- 数据卡片 -->
  <rect x="90" y="130" width="80" height="80" fill="white" stroke="#ddd" rx="5"/>
  <rect x="180" y="130" width="80" height="80" fill="white" stroke="#ddd" rx="5"/>
  <rect x="270" y="130" width="80" height="80" fill="white" stroke="#ddd" rx="5"/>
  
  <!-- 卡片内容 -->
  <circle cx="130" cy="150" r="15" fill="#667eea" opacity="0.7"/>
  <rect x="110" y="175" width="40" height="10" fill="#e0e0e0" rx="2"/>
  
  <circle cx="220" cy="150" r="15" fill="#764ba2" opacity="0.7"/>
  <rect x="200" y="175" width="40" height="10" fill="#e0e0e0" rx="2"/>
  
  <circle cx="310" cy="150" r="15" fill="#f093fb" opacity="0.7"/>
  <rect x="290" y="175" width="40" height="10" fill="#e0e0e0" rx="2"/>
  
  <!-- 标题 -->
  <text x="240" y="240" font-family="Arial" font-size="14" fill="#333" text-anchor="middle">后台管理系统项目</text>
</svg>